<?xml version="1.0" encoding="UTF-8" standalone="no"?>
<!DOCTYPE svg PUBLIC "-//W3C//DTD SVG 1.1//EN"
 "http://www.w3.org/Graphics/SVG/1.1/DTD/svg11.dtd">
<!-- Generated by graphviz version 7.1.0 (20230121.1956)
 -->
<!-- Title: classes_SegMeant Pages: 1 -->
<svg width="2026pt" height="904pt"
 viewBox="0.00 0.00 2025.50 904.00" xmlns="http://www.w3.org/2000/svg" xmlns:xlink="http://www.w3.org/1999/xlink">
<g id="graph0" class="graph" transform="scale(1 1) rotate(0) translate(4 900)">
<title>classes_SegMeant</title>
<polygon fill="white" stroke="none" points="-4,4 -4,-900 2021.5,-900 2021.5,4 -4,4"/>
<!-- SegMeant.EngineSM.tools.CacheSM.CacheSM -->
<g id="node1" class="node">
<title>SegMeant.EngineSM.tools.CacheSM.CacheSM</title>
<polygon fill="none" stroke="black" points="0,-23 0,-197 180,-197 180,-23 0,-23"/>
<text text-anchor="start" x="62" y="-181.8" font-family="Times New Roman,serif" font-size="14.00">CacheSM</text>
<polyline fill="none" stroke="black" points="0,-174 180,-174"/>
<text text-anchor="start" x="22.5" y="-158.8" font-family="Times New Roman,serif" font-size="14.00">cache : DbfilenameShelf</text>
<text text-anchor="start" x="22.5" y="-143.8" font-family="Times New Roman,serif" font-size="14.00">writeback : bool</text>
<polyline fill="none" stroke="black" points="0,-136 180,-136"/>
<text text-anchor="start" x="8" y="-120.8" font-family="Times New Roman,serif" font-size="14.00">__del__()</text>
<text text-anchor="start" x="8" y="-105.8" font-family="Times New Roman,serif" font-size="14.00">__init__()</text>
<text text-anchor="start" x="8" y="-90.8" font-family="Times New Roman,serif" font-size="14.00">add(element, id: str): None</text>
<text text-anchor="start" x="8" y="-75.8" font-family="Times New Roman,serif" font-size="14.00">clear(): None</text>
<text text-anchor="start" x="8" y="-60.8" font-family="Times New Roman,serif" font-size="14.00">delete(id: str): None</text>
<text text-anchor="start" x="8" y="-45.8" font-family="Times New Roman,serif" font-size="14.00">get_corpus_id(paths: list): str</text>
<text text-anchor="start" x="8" y="-30.8" font-family="Times New Roman,serif" font-size="14.00">isin(id): bool</text>
</g>
<!-- SegMeant.EngineSM.CorpusSM.CorpusSM -->
<g id="node2" class="node">
<title>SegMeant.EngineSM.CorpusSM.CorpusSM</title>
<polygon fill="none" stroke="black" points="198,-68 198,-152 354,-152 354,-68 198,-68"/>
<text text-anchor="start" x="244.5" y="-136.8" font-family="Times New Roman,serif" font-size="14.00">CorpusSM</text>
<polyline fill="none" stroke="black" points="198,-129 354,-129"/>
<text text-anchor="start" x="232" y="-113.8" font-family="Times New Roman,serif" font-size="14.00">documents : list</text>
<text text-anchor="start" x="232" y="-98.8" font-family="Times New Roman,serif" font-size="14.00">matrices : dict</text>
<polyline fill="none" stroke="black" points="198,-91 354,-91"/>
<text text-anchor="start" x="206" y="-75.8" font-family="Times New Roman,serif" font-size="14.00">__init__(documents: list)</text>
</g>
<!-- SegMeant.EngineSM.classification.ClassificationSM.DataStatsSM -->
<g id="node3" class="node">
<title>SegMeant.EngineSM.classification.ClassificationSM.DataStatsSM</title>
<polygon fill="none" stroke="black" points="372,-68 372,-152 614,-152 614,-68 372,-68"/>
<text text-anchor="start" x="456" y="-136.8" font-family="Times New Roman,serif" font-size="14.00">DataStatsSM</text>
<polyline fill="none" stroke="black" points="372,-129 614,-129"/>
<text text-anchor="start" x="464" y="-113.8" font-family="Times New Roman,serif" font-size="14.00">data : list</text>
<text text-anchor="start" x="464" y="-98.8" font-family="Times New Roman,serif" font-size="14.00">stats : dict</text>
<polyline fill="none" stroke="black" points="372,-91 614,-91"/>
<text text-anchor="start" x="380" y="-75.8" font-family="Times New Roman,serif" font-size="14.00">__init__(self, data: list, stats: dict): None</text>
</g>
<!-- SegMeant.EngineSM.SegmentedTextSM.SegmentedTextSM -->
<g id="node12" class="node">
<title>SegMeant.EngineSM.SegmentedTextSM.SegmentedTextSM</title>
<polygon fill="none" stroke="black" points="331,-271.5 331,-895.5 709,-895.5 709,-271.5 331,-271.5"/>
<text text-anchor="start" x="466" y="-880.3" font-family="Times New Roman,serif" font-size="14.00">SegmentedTextSM</text>
<polyline fill="none" stroke="black" points="331,-872.5 709,-872.5"/>
<text text-anchor="start" x="478.5" y="-857.3" font-family="Times New Roman,serif" font-size="14.00">_index : int</text>
<text text-anchor="start" x="478.5" y="-842.3" font-family="Times New Roman,serif" font-size="14.00">grm</text>
<text text-anchor="start" x="478.5" y="-827.3" font-family="Times New Roman,serif" font-size="14.00">hierarchy : dict</text>
<text text-anchor="start" x="478.5" y="-812.3" font-family="Times New Roman,serif" font-size="14.00">lemmas : dict</text>
<text text-anchor="start" x="478.5" y="-797.3" font-family="Times New Roman,serif" font-size="14.00">levels : dict</text>
<text text-anchor="start" x="478.5" y="-782.3" font-family="Times New Roman,serif" font-size="14.00">listObjs : list</text>
<text text-anchor="start" x="478.5" y="-767.3" font-family="Times New Roman,serif" font-size="14.00">masterNode</text>
<text text-anchor="start" x="478.5" y="-752.3" font-family="Times New Roman,serif" font-size="14.00">name : str</text>
<text text-anchor="start" x="478.5" y="-737.3" font-family="Times New Roman,serif" font-size="14.00">stats : dict</text>
<text text-anchor="start" x="478.5" y="-722.3" font-family="Times New Roman,serif" font-size="14.00">txt</text>
<text text-anchor="start" x="478.5" y="-707.3" font-family="Times New Roman,serif" font-size="14.00">types</text>
<polyline fill="none" stroke="black" points="331,-699.5 709,-699.5"/>
<text text-anchor="start" x="339" y="-684.3" font-family="Times New Roman,serif" font-size="14.00">__add__(seg2)</text>
<text text-anchor="start" x="339" y="-669.3" font-family="Times New Roman,serif" font-size="14.00">__hash__(): int</text>
<text text-anchor="start" x="339" y="-654.3" font-family="Times New Roman,serif" font-size="14.00">__init__(txt: str or list, lexicon: LexiconSM, model: NGramsSM)</text>
<text text-anchor="start" x="339" y="-639.3" font-family="Times New Roman,serif" font-size="14.00">__iter__()</text>
<text text-anchor="start" x="339" y="-624.3" font-family="Times New Roman,serif" font-size="14.00">__len__(): int</text>
<text text-anchor="start" x="339" y="-609.3" font-family="Times New Roman,serif" font-size="14.00">__next__()</text>
<text text-anchor="start" x="339" y="-594.3" font-family="Times New Roman,serif" font-size="14.00">__str__(): str</text>
<text text-anchor="start" x="339" y="-579.3" font-family="Times New Roman,serif" font-size="14.00">_lexicalize(tokens: list, lexicon: LexiconSM): None</text>
<text text-anchor="start" x="339" y="-564.3" font-family="Times New Roman,serif" font-size="14.00">_order(hierarchy: dict): LexicalNodeSM</text>
<text text-anchor="start" x="339" y="-549.3" font-family="Times New Roman,serif" font-size="14.00">_order_new(): LexicalNodeSM</text>
<text text-anchor="start" x="339" y="-534.3" font-family="Times New Roman,serif" font-size="14.00">_tag(tokens: list, reference: NGramsSM): dict</text>
<text text-anchor="start" x="339" y="-519.3" font-family="Times New Roman,serif" font-size="14.00">_tokenize(txt: str or list, regex): list</text>
<text text-anchor="start" x="339" y="-504.3" font-family="Times New Roman,serif" font-size="14.00">distance(txt): dict</text>
<text text-anchor="start" x="339" y="-489.3" font-family="Times New Roman,serif" font-size="14.00">distance_lemmas(txt): dict</text>
<text text-anchor="start" x="339" y="-474.3" font-family="Times New Roman,serif" font-size="14.00">findIndex(needle: LexicalNodeSM): tuple</text>
<text text-anchor="start" x="339" y="-459.3" font-family="Times New Roman,serif" font-size="14.00">from_xml(filename)</text>
<text text-anchor="start" x="339" y="-444.3" font-family="Times New Roman,serif" font-size="14.00">has(needle: LexicalNodeSM): bool</text>
<text text-anchor="start" x="339" y="-429.3" font-family="Times New Roman,serif" font-size="14.00">hasInSuccession(needle: LexicalNodeSM): bool</text>
<text text-anchor="start" x="339" y="-414.3" font-family="Times New Roman,serif" font-size="14.00">load(filename: str)</text>
<text text-anchor="start" x="339" y="-399.3" font-family="Times New Roman,serif" font-size="14.00">remove(item)</text>
<text text-anchor="start" x="339" y="-384.3" font-family="Times New Roman,serif" font-size="14.00">report(path: str, textname: str, zip: bool, graphs): None</text>
<text text-anchor="start" x="339" y="-369.3" font-family="Times New Roman,serif" font-size="14.00">retrieve(needle)</text>
<text text-anchor="start" x="339" y="-354.3" font-family="Times New Roman,serif" font-size="14.00">save(filename: str): None</text>
<text text-anchor="start" x="339" y="-339.3" font-family="Times New Roman,serif" font-size="14.00">search_seq(seq)</text>
<text text-anchor="start" x="339" y="-324.3" font-family="Times New Roman,serif" font-size="14.00">serialize(): str</text>
<text text-anchor="start" x="339" y="-309.3" font-family="Times New Roman,serif" font-size="14.00">to_XML(filename: str): None or str</text>
<text text-anchor="start" x="339" y="-294.3" font-family="Times New Roman,serif" font-size="14.00">to_csv(filename: str): None</text>
<text text-anchor="start" x="339" y="-279.3" font-family="Times New Roman,serif" font-size="14.00">to_dict(): dict</text>
</g>
<!-- SegMeant.EngineSM.classification.ClassificationSM.DataStatsSM&#45;&gt;SegMeant.EngineSM.SegmentedTextSM.SegmentedTextSM -->
<g id="edge4" class="edge">
<title>SegMeant.EngineSM.classification.ClassificationSM.DataStatsSM&#45;&gt;SegMeant.EngineSM.SegmentedTextSM.SegmentedTextSM</title>
<path fill="none" stroke="black" d="M495.33,-151.61C496.86,-178.44 499.04,-216.39 501.46,-258.78"/>
<polygon fill="black" stroke="black" points="501.47,-258.88 505.8,-264.64 502.15,-270.86 497.82,-265.1 501.47,-258.88"/>
<text text-anchor="middle" x="522.5" y="-241.8" font-family="Times New Roman,serif" font-size="14.00" fill="green">lemmas</text>
</g>
<!-- SegMeant.EngineSM.classification.ClassificationSM.DataStatsSM&#45;&gt;SegMeant.EngineSM.SegmentedTextSM.SegmentedTextSM -->
<g id="edge5" class="edge">
<title>SegMeant.EngineSM.classification.ClassificationSM.DataStatsSM&#45;&gt;SegMeant.EngineSM.SegmentedTextSM.SegmentedTextSM</title>
<path fill="none" stroke="black" d="M482.04,-151.83C475.98,-176.56 469.06,-208.86 466,-238 465.27,-244.96 464.71,-252 464.32,-259.09"/>
<polygon fill="black" stroke="black" points="464.32,-259.01 468.07,-265.17 463.82,-271 460.07,-264.83 464.32,-259.01"/>
<text text-anchor="middle" x="481.5" y="-241.8" font-family="Times New Roman,serif" font-size="14.00" fill="green">types</text>
</g>
<!-- enum.Enum -->
<g id="node4" class="node">
<title>enum.Enum</title>
<polygon fill="none" stroke="black" points="1233,-472.5 1233,-694.5 1517,-694.5 1517,-472.5 1233,-472.5"/>
<text text-anchor="start" x="1358.5" y="-679.3" font-family="Times New Roman,serif" font-size="14.00">Enum</text>
<polyline fill="none" stroke="black" points="1233,-671.5 1517,-671.5"/>
<polyline fill="none" stroke="black" points="1233,-648.5 1517,-648.5"/>
<text text-anchor="start" x="1241" y="-634.3" font-family="Times New Roman,serif" font-size="14.00">__dir__()</text>
<text text-anchor="start" x="1241" y="-620.3" font-family="Times New Roman,serif" font-size="14.00">__format__(format_spec)</text>
<text text-anchor="start" x="1241" y="-606.3" font-family="Times New Roman,serif" font-size="14.00">__hash__()</text>
<text text-anchor="start" x="1241" y="-592.3" font-family="Times New Roman,serif" font-style="italic" font-size="14.00">__init__</text>
<text text-anchor="start" x="1290" y="-592.3" font-family="Times New Roman,serif" font-size="14.00">()</text>
<text text-anchor="start" x="1241" y="-578.3" font-family="Times New Roman,serif" font-size="14.00">__new__(value)</text>
<text text-anchor="start" x="1241" y="-564.3" font-family="Times New Roman,serif" font-size="14.00">__reduce_ex__(proto)</text>
<text text-anchor="start" x="1241" y="-550.3" font-family="Times New Roman,serif" font-size="14.00">__repr__()</text>
<text text-anchor="start" x="1241" y="-536.3" font-family="Times New Roman,serif" font-size="14.00">__str__()</text>
<text text-anchor="start" x="1241" y="-522.3" font-family="Times New Roman,serif" font-size="14.00">_generate_next_value_(start, count, last_values)</text>
<text text-anchor="start" x="1241" y="-508.3" font-family="Times New Roman,serif" font-size="14.00">_missing_(value)</text>
<text text-anchor="start" x="1241" y="-494.3" font-family="Times New Roman,serif" font-size="14.00">name()</text>
<text text-anchor="start" x="1241" y="-480.3" font-family="Times New Roman,serif" font-size="14.00">value()</text>
</g>
<!-- SegMeant.EngineSM.tree.NodeSM.LexicalEntity -->
<g id="node5" class="node">
<title>SegMeant.EngineSM.tree.NodeSM.LexicalEntity</title>
<polygon fill="none" stroke="black" points="1049,-526.5 1049,-640.5 1215,-640.5 1215,-526.5 1049,-526.5"/>
<text text-anchor="start" x="1095.5" y="-625.3" font-family="Times New Roman,serif" font-size="14.00">LexicalEntity</text>
<polyline fill="none" stroke="black" points="1049,-617.5 1215,-617.5"/>
<text text-anchor="start" x="1090.5" y="-602.3" font-family="Times New Roman,serif" font-size="14.00">attributes : dict</text>
<text text-anchor="start" x="1090.5" y="-587.3" font-family="Times New Roman,serif" font-size="14.00">form : str</text>
<text text-anchor="start" x="1090.5" y="-572.3" font-family="Times New Roman,serif" font-size="14.00">type : str</text>
<polyline fill="none" stroke="black" points="1049,-564.5 1215,-564.5"/>
<text text-anchor="start" x="1057" y="-549.3" font-family="Times New Roman,serif" font-size="14.00">__init__(text: str, type: str)</text>
<text text-anchor="start" x="1057" y="-534.3" font-family="Times New Roman,serif" font-size="14.00">__repr__()</text>
</g>
<!-- SegMeant.EngineSM.tree.NodeSM.LexicalNodeSM -->
<g id="node6" class="node">
<title>SegMeant.EngineSM.tree.NodeSM.LexicalNodeSM</title>
<polygon fill="none" stroke="black" points="666.5,-45.5 666.5,-174.5 869.5,-174.5 869.5,-45.5 666.5,-45.5"/>
<text text-anchor="start" x="722.5" y="-159.3" font-family="Times New Roman,serif" font-size="14.00">LexicalNodeSM</text>
<polyline fill="none" stroke="black" points="666.5,-151.5 869.5,-151.5"/>
<text text-anchor="start" x="726.5" y="-136.3" font-family="Times New Roman,serif" font-size="14.00">attributes : dict</text>
<text text-anchor="start" x="726.5" y="-121.3" font-family="Times New Roman,serif" font-size="14.00">children</text>
<text text-anchor="start" x="726.5" y="-106.3" font-family="Times New Roman,serif" font-size="14.00">index</text>
<text text-anchor="start" x="726.5" y="-91.3" font-family="Times New Roman,serif" font-size="14.00">type : str</text>
<polyline fill="none" stroke="black" points="666.5,-83.5 869.5,-83.5"/>
<text text-anchor="start" x="674.5" y="-68.3" font-family="Times New Roman,serif" font-size="14.00">__init__(text: str, type: str, index)</text>
<text text-anchor="start" x="674.5" y="-53.3" font-family="Times New Roman,serif" font-size="14.00">__str__()</text>
</g>
<!-- SegMeant.EngineSM.tree.NodeSM.LexicalNodeSM&#45;&gt;SegMeant.EngineSM.tree.NodeSM.LexicalEntity -->
<g id="edge1" class="edge">
<title>SegMeant.EngineSM.tree.NodeSM.LexicalNodeSM&#45;&gt;SegMeant.EngineSM.tree.NodeSM.LexicalEntity</title>
<path fill="none" stroke="black" d="M869.19,-148.77C926.57,-174.98 995.41,-215.27 1039,-271 1094.96,-342.54 1117.32,-447.25 1126.2,-515.14"/>
<polygon fill="none" stroke="black" points="1122.73,-515.54 1127.43,-525.04 1129.67,-514.68 1122.73,-515.54"/>
</g>
<!-- SegMeant.EngineSM.tree.NodeSM.NodeSM -->
<g id="node9" class="node">
<title>SegMeant.EngineSM.tree.NodeSM.NodeSM</title>
<polygon fill="none" stroke="black" points="727.5,-391.5 727.5,-775.5 1030.5,-775.5 1030.5,-391.5 727.5,-391.5"/>
<text text-anchor="start" x="853" y="-760.3" font-family="Times New Roman,serif" font-size="14.00">NodeSM</text>
<polyline fill="none" stroke="black" points="727.5,-752.5 1030.5,-752.5"/>
<text text-anchor="start" x="769" y="-737.3" font-family="Times New Roman,serif" font-size="14.00">children : list</text>
<text text-anchor="start" x="769" y="-722.3" font-family="Times New Roman,serif" font-size="14.00">current_index : int</text>
<text text-anchor="start" x="769" y="-707.3" font-family="Times New Roman,serif" font-size="14.00">ind : int</text>
<text text-anchor="start" x="769" y="-692.3" font-family="Times New Roman,serif" font-size="14.00">index : int</text>
<text text-anchor="start" x="769" y="-677.3" font-family="Times New Roman,serif" font-size="14.00">parent : NoneType, Optional[NodeSM]</text>
<polyline fill="none" stroke="black" points="727.5,-669.5 1030.5,-669.5"/>
<text text-anchor="start" x="735.5" y="-654.3" font-family="Times New Roman,serif" font-size="14.00">__getitem__(item)</text>
<text text-anchor="start" x="735.5" y="-639.3" font-family="Times New Roman,serif" font-size="14.00">__init__(index)</text>
<text text-anchor="start" x="735.5" y="-624.3" font-family="Times New Roman,serif" font-size="14.00">__iter__()</text>
<text text-anchor="start" x="735.5" y="-609.3" font-family="Times New Roman,serif" font-size="14.00">__len__()</text>
<text text-anchor="start" x="735.5" y="-594.3" font-family="Times New Roman,serif" font-size="14.00">__next__()</text>
<text text-anchor="start" x="735.5" y="-579.3" font-family="Times New Roman,serif" font-size="14.00">decapsulate(): list</text>
<text text-anchor="start" x="735.5" y="-564.3" font-family="Times New Roman,serif" font-size="14.00">decapsulateToType(childType: str)</text>
<text text-anchor="start" x="735.5" y="-549.3" font-family="Times New Roman,serif" font-size="14.00">delRelations(): None</text>
<text text-anchor="start" x="735.5" y="-534.3" font-family="Times New Roman,serif" font-size="14.00">encapsulate()</text>
<text text-anchor="start" x="735.5" y="-519.3" font-family="Times New Roman,serif" font-size="14.00">from_list(ls: list, indexify: bool, start_index: int): list</text>
<text text-anchor="start" x="735.5" y="-504.3" font-family="Times New Roman,serif" font-size="14.00">getDepth(): int</text>
<text text-anchor="start" x="735.5" y="-489.3" font-family="Times New Roman,serif" font-size="14.00">groupSetParent(nodes: list): None</text>
<text text-anchor="start" x="735.5" y="-474.3" font-family="Times New Roman,serif" font-size="14.00">next(route)</text>
<text text-anchor="start" x="735.5" y="-459.3" font-family="Times New Roman,serif" font-size="14.00">previous(route)</text>
<text text-anchor="start" x="735.5" y="-444.3" font-family="Times New Roman,serif" font-size="14.00">relateAsChild(parent): None</text>
<text text-anchor="start" x="735.5" y="-429.3" font-family="Times New Roman,serif" font-size="14.00">relateAsParent(child, replace: bool): None</text>
<text text-anchor="start" x="735.5" y="-414.3" font-family="Times New Roman,serif" font-size="14.00">toJSON(indent): str</text>
<text text-anchor="start" x="735.5" y="-399.3" font-family="Times New Roman,serif" font-size="14.00">updateIndex(): None</text>
</g>
<!-- SegMeant.EngineSM.tree.NodeSM.LexicalNodeSM&#45;&gt;SegMeant.EngineSM.tree.NodeSM.NodeSM -->
<g id="edge2" class="edge">
<title>SegMeant.EngineSM.tree.NodeSM.LexicalNodeSM&#45;&gt;SegMeant.EngineSM.tree.NodeSM.NodeSM</title>
<path fill="none" stroke="black" d="M810.48,-174.26C821.84,-193.92 832.91,-216.19 840,-238 854.64,-283.05 863.96,-332.95 869.86,-380.47"/>
<polygon fill="none" stroke="black" points="866.38,-380.83 871.03,-390.34 873.33,-380 866.38,-380.83"/>
</g>
<!-- SegMeant.EngineSM.tree.NodeSM.LexicalNodeSM&#45;&gt;SegMeant.EngineSM.SegmentedTextSM.SegmentedTextSM -->
<g id="edge8" class="edge">
<title>SegMeant.EngineSM.tree.NodeSM.LexicalNodeSM&#45;&gt;SegMeant.EngineSM.SegmentedTextSM.SegmentedTextSM</title>
<path fill="none" stroke="black" d="M769.29,-174.43C767.13,-200.54 760.96,-229.99 746,-253 739.38,-263.17 731.8,-261.71 718.52,-271.81"/>
<polygon fill="black" stroke="black" points="718.55,-271.78 716.73,-278.76 709.59,-279.76 711.41,-272.78 718.55,-271.78"/>
<text text-anchor="middle" x="788" y="-241.8" font-family="Times New Roman,serif" font-size="14.00" fill="green">masterNode</text>
</g>
<!-- SegMeant.EngineSM.tree.NodeSM.LexicalNodeSM&#45;&gt;SegMeant.EngineSM.SegmentedTextSM.SegmentedTextSM -->
<g id="edge9" class="edge">
<title>SegMeant.EngineSM.tree.NodeSM.LexicalNodeSM&#45;&gt;SegMeant.EngineSM.SegmentedTextSM.SegmentedTextSM</title>
<path fill="none" stroke="black" d="M688.92,-174.5C668.01,-190.15 645.09,-206.33 623,-220 607.79,-229.41 597.82,-223.76 587,-238 581.55,-245.17 576.51,-252.67 571.84,-260.42"/>
<polygon fill="none" stroke="black" points="571.89,-260.34 572.39,-267.53 565.94,-270.76 565.44,-263.57 571.89,-260.34"/>
<text text-anchor="middle" x="621" y="-241.8" font-family="Times New Roman,serif" font-size="14.00" fill="green">masterNode</text>
</g>
<!-- SegMeant.EngineSM.tree.NodeSM.LexicalNodeSM&#45;&gt;SegMeant.EngineSM.SegmentedTextSM.SegmentedTextSM -->
<g id="edge10" class="edge">
<title>SegMeant.EngineSM.tree.NodeSM.LexicalNodeSM&#45;&gt;SegMeant.EngineSM.SegmentedTextSM.SegmentedTextSM</title>
<path fill="none" stroke="black" d="M716.88,-174.41C702.11,-194.17 686.59,-216.45 674,-238 669.67,-245.41 665.38,-252.97 661.14,-260.63"/>
<polygon fill="none" stroke="black" points="661.15,-260.61 661.78,-267.8 655.39,-271.14 654.76,-263.96 661.15,-260.61"/>
<text text-anchor="middle" x="708" y="-241.8" font-family="Times New Roman,serif" font-size="14.00" fill="green">masterNode</text>
</g>
<!-- SegMeant.EngineSM.resources.LexiconSM.LexiconSM -->
<g id="node7" class="node">
<title>SegMeant.EngineSM.resources.LexiconSM.LexiconSM</title>
<polygon fill="none" stroke="black" points="1420,-8 1420,-212 1604,-212 1604,-8 1420,-8"/>
<text text-anchor="start" x="1479" y="-196.8" font-family="Times New Roman,serif" font-size="14.00">LexiconSM</text>
<polyline fill="none" stroke="black" points="1420,-189 1604,-189"/>
<text text-anchor="start" x="1438.5" y="-173.8" font-family="Times New Roman,serif" font-size="14.00">lex : DbfilenameShelf, dict</text>
<text text-anchor="start" x="1438.5" y="-158.8" font-family="Times New Roman,serif" font-size="14.00">regex</text>
<polyline fill="none" stroke="black" points="1420,-151 1604,-151"/>
<text text-anchor="start" x="1428" y="-135.8" font-family="Times New Roman,serif" font-size="14.00">__del__()</text>
<text text-anchor="start" x="1428" y="-120.8" font-family="Times New Roman,serif" font-size="14.00">__getitem__(key)</text>
<text text-anchor="start" x="1428" y="-105.8" font-family="Times New Roman,serif" font-size="14.00">__init__(shelf)</text>
<text text-anchor="start" x="1428" y="-90.8" font-family="Times New Roman,serif" font-size="14.00">__iter__()</text>
<text text-anchor="start" x="1428" y="-75.8" font-family="Times New Roman,serif" font-size="14.00">attr_val(form: str, attr: str): list</text>
<text text-anchor="start" x="1428" y="-60.8" font-family="Times New Roman,serif" font-size="14.00">create(dico_file_name: str)</text>
<text text-anchor="start" x="1428" y="-45.8" font-family="Times New Roman,serif" font-size="14.00">from_json(fname)</text>
<text text-anchor="start" x="1428" y="-30.8" font-family="Times New Roman,serif" font-size="14.00">load(shelve)</text>
<text text-anchor="start" x="1428" y="-15.8" font-family="Times New Roman,serif" font-size="14.00">to_json(fname: str)</text>
</g>
<!-- SegMeant.SegMeant.SegMeant -->
<g id="node11" class="node">
<title>SegMeant.SegMeant.SegMeant</title>
<polygon fill="none" stroke="black" points="1598.5,-526.5 1598.5,-640.5 1915.5,-640.5 1915.5,-526.5 1598.5,-526.5"/>
<text text-anchor="start" x="1729" y="-625.3" font-family="Times New Roman,serif" font-size="14.00">SegMeant</text>
<polyline fill="none" stroke="black" points="1598.5,-617.5 1915.5,-617.5"/>
<text text-anchor="start" x="1726.5" y="-602.3" font-family="Times New Roman,serif" font-size="14.00">LEXICON</text>
<text text-anchor="start" x="1726.5" y="-587.3" font-family="Times New Roman,serif" font-size="14.00">MODEL</text>
<polyline fill="none" stroke="black" points="1598.5,-579.5 1915.5,-579.5"/>
<text text-anchor="start" x="1606.5" y="-564.3" font-family="Times New Roman,serif" font-size="14.00">__init__()</text>
<text text-anchor="start" x="1606.5" y="-549.3" font-family="Times New Roman,serif" font-size="14.00">corpus_from_paths(paths: list): CorpusSM</text>
<text text-anchor="start" x="1606.5" y="-534.3" font-family="Times New Roman,serif" font-size="14.00">segment_text_from_file(path: str): SegmentedTextSM</text>
</g>
<!-- SegMeant.EngineSM.resources.LexiconSM.LexiconSM&#45;&gt;SegMeant.SegMeant.SegMeant -->
<g id="edge6" class="edge">
<title>SegMeant.EngineSM.resources.LexiconSM.LexiconSM&#45;&gt;SegMeant.SegMeant.SegMeant</title>
<path fill="none" stroke="black" d="M1564.41,-211.86C1612.04,-303.52 1680.97,-436.19 1722.16,-515.44"/>
<polygon fill="black" stroke="black" points="1722.08,-515.29 1728.39,-518.77 1727.61,-525.94 1721.29,-522.46 1722.08,-515.29"/>
<text text-anchor="middle" x="1615.5" y="-241.8" font-family="Times New Roman,serif" font-size="14.00" fill="green">LEXICON</text>
</g>
<!-- SegMeant.EngineSM.resources.NGramsSM.NGramsSM -->
<g id="node8" class="node">
<title>SegMeant.EngineSM.resources.NGramsSM.NGramsSM</title>
<polygon fill="none" stroke="black" points="1622.5,-0.5 1622.5,-219.5 2017.5,-219.5 2017.5,-0.5 1622.5,-0.5"/>
<text text-anchor="start" x="1786" y="-204.3" font-family="Times New Roman,serif" font-size="14.00">NGramsSM</text>
<polyline fill="none" stroke="black" points="1622.5,-196.5 2017.5,-196.5"/>
<text text-anchor="start" x="1750.5" y="-181.3" font-family="Times New Roman,serif" font-size="14.00">n : set, list</text>
<text text-anchor="start" x="1750.5" y="-166.3" font-family="Times New Roman,serif" font-size="14.00">ngrams : NoneType, dict</text>
<text text-anchor="start" x="1750.5" y="-151.3" font-family="Times New Roman,serif" font-size="14.00">sep : str</text>
<text text-anchor="start" x="1750.5" y="-136.3" font-family="Times New Roman,serif" font-size="14.00">stop_list : list</text>
<polyline fill="none" stroke="black" points="1622.5,-128.5 2017.5,-128.5"/>
<text text-anchor="start" x="1630.5" y="-113.3" font-family="Times New Roman,serif" font-size="14.00">__del__()</text>
<text text-anchor="start" x="1630.5" y="-98.3" font-family="Times New Roman,serif" font-size="14.00">__getitem__(key)</text>
<text text-anchor="start" x="1630.5" y="-83.3" font-family="Times New Roman,serif" font-size="14.00">__init__()</text>
<text text-anchor="start" x="1630.5" y="-68.3" font-family="Times New Roman,serif" font-size="14.00">__iter__()</text>
<text text-anchor="start" x="1630.5" y="-53.3" font-family="Times New Roman,serif" font-size="14.00">_projection(d: dict, print_keys: bool, print_children_keys: bool): list</text>
<text text-anchor="start" x="1630.5" y="-38.3" font-family="Times New Roman,serif" font-size="14.00">_to_row(sep): str</text>
<text text-anchor="start" x="1630.5" y="-23.3" font-family="Times New Roman,serif" font-size="14.00">format(headers: list, sep, newline): str</text>
<text text-anchor="start" x="1630.5" y="-8.3" font-family="Times New Roman,serif" font-size="14.00">relative_frequency(): dict</text>
</g>
<!-- SegMeant.EngineSM.resources.NGramsSM.NGramsSM&#45;&gt;SegMeant.SegMeant.SegMeant -->
<g id="edge7" class="edge">
<title>SegMeant.EngineSM.resources.NGramsSM.NGramsSM&#45;&gt;SegMeant.SegMeant.SegMeant</title>
<path fill="none" stroke="black" d="M1805.51,-219.47C1793.4,-310.08 1776.51,-436.52 1766.18,-513.77"/>
<polygon fill="black" stroke="black" points="1766.17,-513.88 1769.34,-520.35 1764.58,-525.77 1761.41,-519.29 1766.17,-513.88"/>
<text text-anchor="middle" x="1826.5" y="-241.8" font-family="Times New Roman,serif" font-size="14.00" fill="green">MODEL</text>
</g>
<!-- SegMeant.EngineSM.tree.NodeSM.NodeSM.Route -->
<g id="node10" class="node">
<title>SegMeant.EngineSM.tree.NodeSM.NodeSM.Route</title>
<polygon fill="none" stroke="black" points="1348,-75.5 1348,-144.5 1402,-144.5 1402,-75.5 1348,-75.5"/>
<text text-anchor="start" x="1358" y="-129.3" font-family="Times New Roman,serif" font-size="14.00">Route</text>
<polyline fill="none" stroke="black" points="1348,-121.5 1402,-121.5"/>
<text text-anchor="start" x="1360" y="-106.3" font-family="Times New Roman,serif" font-size="14.00">name</text>
<polyline fill="none" stroke="black" points="1348,-98.5 1402,-98.5"/>
<text text-anchor="start" x="1373" y="-83.3" font-family="Times New Roman,serif" font-size="14.00"> </text>
</g>
<!-- SegMeant.EngineSM.tree.NodeSM.NodeSM.Route&#45;&gt;enum.Enum -->
<g id="edge3" class="edge">
<title>SegMeant.EngineSM.tree.NodeSM.NodeSM.Route&#45;&gt;enum.Enum</title>
<path fill="none" stroke="black" d="M1375,-144.15C1375,-208.98 1375,-355.4 1375,-461.2"/>
<polygon fill="none" stroke="black" points="1371.5,-461.09 1375,-471.09 1378.5,-461.09 1371.5,-461.09"/>
</g>
</g>
</svg>
