<?xml version="1.0" encoding="UTF-8" standalone="no"?>
<!DOCTYPE svg PUBLIC "-//W3C//DTD SVG 1.1//EN"
 "http://www.w3.org/Graphics/SVG/1.1/DTD/svg11.dtd">
<!-- Generated by graphviz version 7.1.0 (20230121.1956)
 -->
<!-- Title: packages_SegMeant Pages: 1 -->
<svg width="1582pt" height="332pt"
 viewBox="0.00 0.00 1581.50 332.00" xmlns="http://www.w3.org/2000/svg" xmlns:xlink="http://www.w3.org/1999/xlink">
<g id="graph0" class="graph" transform="scale(1 1) rotate(0) translate(4 328)">
<title>packages_SegMeant</title>
<polygon fill="white" stroke="none" points="-4,4 -4,-328 1577.5,-328 1577.5,4 -4,4"/>
<!-- SegMeant -->
<g id="node1" class="node">
<title>SegMeant</title>
<polygon fill="none" stroke="black" points="789.5,-36 717.5,-36 717.5,0 789.5,0 789.5,-36"/>
<text text-anchor="middle" x="753.5" y="-14.3" font-family="Times New Roman,serif" font-size="14.00">SegMeant</text>
</g>
<!-- SegMeant&#45;&gt;SegMeant -->
<g id="edge1" class="edge">
<title>SegMeant&#45;&gt;SegMeant</title>
<path fill="none" stroke="black" d="M789.84,-4.58C799.85,-5.23 807.5,-9.7 807.5,-18 807.5,-23.32 804.36,-27.06 799.47,-29.24"/>
<polygon fill="black" stroke="black" points="789.84,-31.42 798.6,-24.82 794.72,-30.31 799.6,-29.21 799.6,-29.21 799.6,-29.21 794.72,-30.31 800.59,-33.6 789.84,-31.42 789.84,-31.42"/>
</g>
<!-- SegMeant.EngineSM -->
<g id="node2" class="node">
<title>SegMeant.EngineSM</title>
<polygon fill="none" stroke="black" points="833.5,-108 699.5,-108 699.5,-72 833.5,-72 833.5,-108"/>
<text text-anchor="middle" x="766.5" y="-86.3" font-family="Times New Roman,serif" font-size="14.00">SegMeant.EngineSM</text>
</g>
<!-- SegMeant.EngineSM.CorpusSM -->
<g id="node3" class="node">
<title>SegMeant.EngineSM.CorpusSM</title>
<polygon fill="none" stroke="black" points="738.5,-180 538.5,-180 538.5,-144 738.5,-144 738.5,-180"/>
<text text-anchor="middle" x="638.5" y="-158.3" font-family="Times New Roman,serif" font-size="14.00">SegMeant.EngineSM.CorpusSM</text>
</g>
<!-- SegMeant.EngineSM&#45;&gt;SegMeant.EngineSM.CorpusSM -->
<g id="edge2" class="edge">
<title>SegMeant.EngineSM&#45;&gt;SegMeant.EngineSM.CorpusSM</title>
<path fill="none" stroke="black" d="M734.53,-108.48C717.6,-117.74 696.65,-129.2 678.64,-139.05"/>
<polygon fill="black" stroke="black" points="670.06,-143.74 676.68,-134.99 674.45,-141.34 678.84,-138.94 678.84,-138.94 678.84,-138.94 674.45,-141.34 681,-142.89 670.06,-143.74 670.06,-143.74"/>
</g>
<!-- SegMeant.EngineSM.SegmentedTextSM -->
<g id="node4" class="node">
<title>SegMeant.EngineSM.SegmentedTextSM</title>
<polygon fill="none" stroke="black" points="885,-252 640,-252 640,-216 885,-216 885,-252"/>
<text text-anchor="middle" x="762.5" y="-230.3" font-family="Times New Roman,serif" font-size="14.00">SegMeant.EngineSM.SegmentedTextSM</text>
</g>
<!-- SegMeant.EngineSM&#45;&gt;SegMeant.EngineSM.SegmentedTextSM -->
<g id="edge3" class="edge">
<title>SegMeant.EngineSM&#45;&gt;SegMeant.EngineSM.SegmentedTextSM</title>
<path fill="none" stroke="black" d="M766.01,-108.41C765.32,-132.82 764.07,-177.42 763.26,-206.11"/>
<polygon fill="black" stroke="black" points="762.98,-215.89 758.77,-205.77 763.12,-210.89 763.26,-205.89 763.26,-205.89 763.26,-205.89 763.12,-210.89 767.76,-206.02 762.98,-215.89 762.98,-215.89"/>
</g>
<!-- SegMeant.EngineSM.CorpusSM&#45;&gt;SegMeant.EngineSM.SegmentedTextSM -->
<g id="edge4" class="edge">
<title>SegMeant.EngineSM.CorpusSM&#45;&gt;SegMeant.EngineSM.SegmentedTextSM</title>
<path fill="none" stroke="black" d="M669.47,-180.48C685.87,-189.74 706.17,-201.2 723.62,-211.05"/>
<polygon fill="black" stroke="black" points="731.92,-215.74 721,-214.74 727.57,-213.28 723.22,-210.82 723.22,-210.82 723.22,-210.82 727.57,-213.28 725.43,-206.9 731.92,-215.74 731.92,-215.74"/>
</g>
<!-- SegMeant.EngineSM.classification -->
<g id="node5" class="node">
<title>SegMeant.EngineSM.classification</title>
<polygon fill="none" stroke="black" points="209,-324 0,-324 0,-288 209,-288 209,-324"/>
<text text-anchor="middle" x="104.5" y="-302.3" font-family="Times New Roman,serif" font-size="14.00">SegMeant.EngineSM.classification</text>
</g>
<!-- SegMeant.EngineSM.CorpusSM&#45;&gt;SegMeant.EngineSM.classification -->
<g id="edge5" class="edge">
<title>SegMeant.EngineSM.CorpusSM&#45;&gt;SegMeant.EngineSM.classification</title>
<path fill="none" stroke="black" d="M572.75,-180.48C473.13,-206.97 284.48,-257.14 179.59,-285.03"/>
<polygon fill="black" stroke="black" points="170.02,-287.58 178.53,-280.66 174.85,-286.29 179.69,-285.01 179.69,-285.01 179.69,-285.01 174.85,-286.29 180.84,-289.36 170.02,-287.58 170.02,-287.58"/>
</g>
<!-- SegMeant.EngineSM.classification.ClassificationSM -->
<g id="node6" class="node">
<title>SegMeant.EngineSM.classification.ClassificationSM</title>
<polygon fill="none" stroke="black" points="535.5,-324 227.5,-324 227.5,-288 535.5,-288 535.5,-324"/>
<text text-anchor="middle" x="381.5" y="-302.3" font-family="Times New Roman,serif" font-size="14.00">SegMeant.EngineSM.classification.ClassificationSM</text>
</g>
<!-- SegMeant.EngineSM.CorpusSM&#45;&gt;SegMeant.EngineSM.classification.ClassificationSM -->
<g id="edge6" class="edge">
<title>SegMeant.EngineSM.CorpusSM&#45;&gt;SegMeant.EngineSM.classification.ClassificationSM</title>
<path fill="none" stroke="black" d="M606.99,-180.41C560.23,-206.25 472.52,-254.71 421.37,-282.97"/>
<polygon fill="black" stroke="black" points="412.87,-287.67 419.45,-278.89 417.25,-285.25 421.62,-282.83 421.62,-282.83 421.62,-282.83 417.25,-285.25 423.8,-286.77 412.87,-287.67 412.87,-287.67"/>
</g>
<!-- SegMeant.EngineSM.SegmentedTextSM&#45;&gt;SegMeant.EngineSM.classification -->
<g id="edge7" class="edge">
<title>SegMeant.EngineSM.SegmentedTextSM&#45;&gt;SegMeant.EngineSM.classification</title>
<path fill="none" stroke="black" d="M639.69,-245.17C531.68,-254.53 369.96,-269.56 219.35,-287.93"/>
<polygon fill="black" stroke="black" points="209.45,-289.14 218.83,-283.46 214.41,-288.54 219.38,-287.93 219.38,-287.93 219.38,-287.93 214.41,-288.54 219.92,-292.39 209.45,-289.14 209.45,-289.14"/>
</g>
<!-- SegMeant.EngineSM.SegmentedTextSM&#45;&gt;SegMeant.EngineSM.classification.ClassificationSM -->
<g id="edge8" class="edge">
<title>SegMeant.EngineSM.SegmentedTextSM&#45;&gt;SegMeant.EngineSM.classification.ClassificationSM</title>
<path fill="none" stroke="black" d="M667.34,-252.48C612.23,-262.61 542.78,-275.37 486.13,-285.78"/>
<polygon fill="black" stroke="black" points="476.44,-287.56 485.46,-281.32 481.35,-286.65 486.27,-285.75 486.27,-285.75 486.27,-285.75 481.35,-286.65 487.08,-290.18 476.44,-287.56 476.44,-287.56"/>
</g>
<!-- SegMeant.EngineSM.resources.LexiconSM -->
<g id="node8" class="node">
<title>SegMeant.EngineSM.resources.LexiconSM</title>
<polygon fill="none" stroke="black" points="1043.5,-324 783.5,-324 783.5,-288 1043.5,-288 1043.5,-324"/>
<text text-anchor="middle" x="913.5" y="-302.3" font-family="Times New Roman,serif" font-size="14.00">SegMeant.EngineSM.resources.LexiconSM</text>
</g>
<!-- SegMeant.EngineSM.SegmentedTextSM&#45;&gt;SegMeant.EngineSM.resources.LexiconSM -->
<g id="edge9" class="edge">
<title>SegMeant.EngineSM.SegmentedTextSM&#45;&gt;SegMeant.EngineSM.resources.LexiconSM</title>
<path fill="none" stroke="black" d="M800.21,-252.48C820.47,-261.87 845.61,-273.53 867.06,-283.47"/>
<polygon fill="black" stroke="black" points="876.01,-287.62 865.04,-287.5 871.47,-285.52 866.93,-283.41 866.93,-283.41 866.93,-283.41 871.47,-285.52 868.83,-279.33 876.01,-287.62 876.01,-287.62"/>
</g>
<!-- SegMeant.EngineSM.resources.NGramsSM -->
<g id="node9" class="node">
<title>SegMeant.EngineSM.resources.NGramsSM</title>
<polygon fill="none" stroke="black" points="1325,-324 1062,-324 1062,-288 1325,-288 1325,-324"/>
<text text-anchor="middle" x="1193.5" y="-302.3" font-family="Times New Roman,serif" font-size="14.00">SegMeant.EngineSM.resources.NGramsSM</text>
</g>
<!-- SegMeant.EngineSM.SegmentedTextSM&#45;&gt;SegMeant.EngineSM.resources.NGramsSM -->
<g id="edge10" class="edge">
<title>SegMeant.EngineSM.SegmentedTextSM&#45;&gt;SegMeant.EngineSM.resources.NGramsSM</title>
<path fill="none" stroke="black" d="M870.15,-252.48C932.88,-262.67 1012.03,-275.53 1076.33,-285.97"/>
<polygon fill="black" stroke="black" points="1086.1,-287.56 1075.51,-290.4 1081.17,-286.76 1076.23,-285.95 1076.23,-285.95 1076.23,-285.95 1081.17,-286.76 1076.96,-281.51 1086.1,-287.56 1086.1,-287.56"/>
</g>
<!-- SegMeant.EngineSM.tools.benchmark -->
<g id="node12" class="node">
<title>SegMeant.EngineSM.tools.benchmark</title>
<polygon fill="none" stroke="black" points="1573.5,-324 1343.5,-324 1343.5,-288 1573.5,-288 1573.5,-324"/>
<text text-anchor="middle" x="1458.5" y="-302.3" font-family="Times New Roman,serif" font-size="14.00">SegMeant.EngineSM.tools.benchmark</text>
</g>
<!-- SegMeant.EngineSM.SegmentedTextSM&#45;&gt;SegMeant.EngineSM.tools.benchmark -->
<g id="edge11" class="edge">
<title>SegMeant.EngineSM.SegmentedTextSM&#45;&gt;SegMeant.EngineSM.tools.benchmark</title>
<path fill="none" stroke="black" d="M885.4,-244.82C999.08,-254.27 1172.98,-269.64 1333.44,-287.9"/>
<polygon fill="black" stroke="black" points="1343.01,-289 1332.57,-292.33 1338.04,-288.43 1333.08,-287.86 1333.08,-287.86 1333.08,-287.86 1338.04,-288.43 1333.59,-283.39 1343.01,-289 1343.01,-289"/>
</g>
<!-- SegMeant.EngineSM.tree.NodeSM -->
<g id="node14" class="node">
<title>SegMeant.EngineSM.tree.NodeSM</title>
<polygon fill="none" stroke="black" points="765.5,-324 553.5,-324 553.5,-288 765.5,-288 765.5,-324"/>
<text text-anchor="middle" x="659.5" y="-302.3" font-family="Times New Roman,serif" font-size="14.00">SegMeant.EngineSM.tree.NodeSM</text>
</g>
<!-- SegMeant.EngineSM.SegmentedTextSM&#45;&gt;SegMeant.EngineSM.tree.NodeSM -->
<g id="edge12" class="edge">
<title>SegMeant.EngineSM.SegmentedTextSM&#45;&gt;SegMeant.EngineSM.tree.NodeSM</title>
<path fill="none" stroke="black" d="M736.77,-252.48C723.53,-261.49 707.21,-272.58 692.99,-282.24"/>
<polygon fill="black" stroke="black" points="684.9,-287.74 690.64,-278.4 689.03,-284.93 693.17,-282.12 693.17,-282.12 693.17,-282.12 689.03,-284.93 695.7,-285.84 684.9,-287.74 684.9,-287.74"/>
</g>
<!-- SegMeant.EngineSM.resources -->
<g id="node7" class="node">
<title>SegMeant.EngineSM.resources</title>
<polygon fill="none" stroke="black" points="1166,-36 975,-36 975,0 1166,0 1166,-36"/>
<text text-anchor="middle" x="1070.5" y="-14.3" font-family="Times New Roman,serif" font-size="14.00">SegMeant.EngineSM.resources</text>
</g>
<!-- SegMeant.EngineSM.tools -->
<g id="node10" class="node">
<title>SegMeant.EngineSM.tools</title>
<polygon fill="none" stroke="black" points="1349,-36 1184,-36 1184,0 1349,0 1349,-36"/>
<text text-anchor="middle" x="1266.5" y="-14.3" font-family="Times New Roman,serif" font-size="14.00">SegMeant.EngineSM.tools</text>
</g>
<!-- SegMeant.EngineSM.tools.CacheSM -->
<g id="node11" class="node">
<title>SegMeant.EngineSM.tools.CacheSM</title>
<polygon fill="none" stroke="black" points="1341.5,-180 1117.5,-180 1117.5,-144 1341.5,-144 1341.5,-180"/>
<text text-anchor="middle" x="1229.5" y="-158.3" font-family="Times New Roman,serif" font-size="14.00">SegMeant.EngineSM.tools.CacheSM</text>
</g>
<!-- SegMeant.EngineSM.tools.CacheSM&#45;&gt;SegMeant.EngineSM.tools.benchmark -->
<g id="edge13" class="edge">
<title>SegMeant.EngineSM.tools.CacheSM&#45;&gt;SegMeant.EngineSM.tools.benchmark</title>
<path fill="none" stroke="black" d="M1257.58,-180.41C1298.98,-206.09 1376.43,-254.11 1422.13,-282.45"/>
<polygon fill="black" stroke="black" points="1430.55,-287.67 1419.68,-286.22 1426.3,-285.03 1422.05,-282.4 1422.05,-282.4 1422.05,-282.4 1426.3,-285.03 1424.42,-278.57 1430.55,-287.67 1430.55,-287.67"/>
</g>
<!-- SegMeant.EngineSM.tree -->
<g id="node13" class="node">
<title>SegMeant.EngineSM.tree</title>
<polygon fill="none" stroke="black" points="1525.5,-36 1367.5,-36 1367.5,0 1525.5,0 1525.5,-36"/>
<text text-anchor="middle" x="1446.5" y="-14.3" font-family="Times New Roman,serif" font-size="14.00">SegMeant.EngineSM.tree</text>
</g>
<!-- SegMeant.SegMeant -->
<g id="node15" class="node">
<title>SegMeant.SegMeant</title>
<polygon fill="none" stroke="black" points="957,-36 826,-36 826,0 957,0 957,-36"/>
<text text-anchor="middle" x="891.5" y="-14.3" font-family="Times New Roman,serif" font-size="14.00">SegMeant.SegMeant</text>
</g>
<!-- SegMeant.SegMeant&#45;&gt;SegMeant.EngineSM -->
<g id="edge14" class="edge">
<title>SegMeant.SegMeant&#45;&gt;SegMeant.EngineSM</title>
<path fill="none" stroke="black" d="M860.28,-36.48C843.75,-45.74 823.29,-57.2 805.7,-67.05"/>
<polygon fill="black" stroke="black" points="797.32,-71.74 803.85,-62.93 801.68,-69.3 806.05,-66.85 806.05,-66.85 806.05,-66.85 801.68,-69.3 808.25,-70.78 797.32,-71.74 797.32,-71.74"/>
</g>
<!-- SegMeant.SegMeant&#45;&gt;SegMeant.EngineSM.CorpusSM -->
<g id="edge15" class="edge">
<title>SegMeant.SegMeant&#45;&gt;SegMeant.EngineSM.CorpusSM</title>
<path fill="none" stroke="black" d="M825.74,-35.06C769.28,-49.05 696.09,-67.75 690.5,-72 669.69,-87.82 655.69,-114.57 647.51,-134.62"/>
<polygon fill="black" stroke="black" points="643.96,-143.85 643.36,-132.9 645.76,-139.18 647.55,-134.52 647.55,-134.52 647.55,-134.52 645.76,-139.18 651.75,-136.13 643.96,-143.85 643.96,-143.85"/>
</g>
<!-- SegMeant.SegMeant&#45;&gt;SegMeant.EngineSM.SegmentedTextSM -->
<g id="edge16" class="edge">
<title>SegMeant.SegMeant&#45;&gt;SegMeant.EngineSM.SegmentedTextSM</title>
<path fill="none" stroke="black" d="M882.44,-36.25C872.84,-54.32 857.1,-83.44 842.5,-108 821.66,-143.07 795.99,-182.57 779.45,-207.61"/>
<polygon fill="black" stroke="black" points="774,-215.84 775.77,-205.01 776.76,-211.67 779.52,-207.5 779.52,-207.5 779.52,-207.5 776.76,-211.67 783.27,-209.99 774,-215.84 774,-215.84"/>
</g>
<!-- SegMeant.SegMeant&#45;&gt;SegMeant.EngineSM.resources.LexiconSM -->
<g id="edge17" class="edge">
<title>SegMeant.SegMeant&#45;&gt;SegMeant.EngineSM.resources.LexiconSM</title>
<path fill="none" stroke="black" d="M892.84,-36.46C896.55,-84.64 906.94,-219.73 911.41,-277.85"/>
<polygon fill="black" stroke="black" points="912.17,-287.77 906.92,-278.14 911.79,-282.78 911.41,-277.8 911.41,-277.8 911.41,-277.8 911.79,-282.78 915.89,-277.45 912.17,-287.77 912.17,-287.77"/>
</g>
<!-- SegMeant.SegMeant&#45;&gt;SegMeant.EngineSM.resources.NGramsSM -->
<g id="edge18" class="edge">
<title>SegMeant.SegMeant&#45;&gt;SegMeant.EngineSM.resources.NGramsSM</title>
<path fill="none" stroke="black" d="M909.94,-36.46C961.76,-85.54 1108.82,-224.8 1168.18,-281.02"/>
<polygon fill="black" stroke="black" points="1175.3,-287.77 1164.95,-284.16 1171.67,-284.33 1168.04,-280.89 1168.04,-280.89 1168.04,-280.89 1171.67,-284.33 1171.14,-277.62 1175.3,-287.77 1175.3,-287.77"/>
</g>
<!-- SegMeant.SegMeant&#45;&gt;SegMeant.EngineSM.tools.CacheSM -->
<g id="edge19" class="edge">
<title>SegMeant.SegMeant&#45;&gt;SegMeant.EngineSM.tools.CacheSM</title>
<path fill="none" stroke="black" d="M954.67,-36.44C986.04,-45.78 1024.25,-58.2 1057.5,-72 1105.02,-91.72 1157.19,-119.66 1191.47,-138.96"/>
<polygon fill="black" stroke="black" points="1199.79,-143.66 1188.87,-142.65 1195.44,-141.2 1191.08,-138.74 1191.08,-138.74 1191.08,-138.74 1195.44,-141.2 1193.3,-134.82 1199.79,-143.66 1199.79,-143.66"/>
</g>
</g>
</svg>
